<?xml version="1.0" encoding="UTF-8" standalone="no"?>
<!-- Created with Inkscape (http://www.inkscape.org/) -->

<svg
   width="128mm"
   height="28mm"
   viewBox="0 0 128 28"
   version="1.1"
   id="svg5"
   inkscape:version="1.1.1 (3bf5ae0d25, 2021-09-20)"
   sodipodi:docname="рисунок.svg"
   xmlns:inkscape="http://www.inkscape.org/namespaces/inkscape"
   xmlns:sodipodi="http://sodipodi.sourceforge.net/DTD/sodipodi-0.dtd"
   xmlns="http://www.w3.org/2000/svg"
   xmlns:svg="http://www.w3.org/2000/svg">
  <sodipodi:namedview
     id="namedview7"
     pagecolor="#ffffff"
     bordercolor="#666666"
     borderopacity="1.0"
     inkscape:pageshadow="2"
     inkscape:pageopacity="0.0"
     inkscape:pagecheckerboard="0"
     inkscape:document-units="mm"
     showgrid="false"
     width="209mm"
     inkscape:zoom="0.65512531"
     inkscape:cx="199.96175"
     inkscape:cy="165.61717"
     inkscape:window-width="1366"
     inkscape:window-height="705"
     inkscape:window-x="-8"
     inkscape:window-y="-8"
     inkscape:window-maximized="1"
     inkscape:current-layer="layer1" />
  <defs
     id="defs2" />
  <g
     inkscape:label="Слой 1"
     inkscape:groupmode="layer"
     id="layer1">
    <path
       style="fill:#00aaff;fill-opacity:1;stroke-width:0.264583"
       d="m 5.5173062,27.212564 c 0,-0.0782 0.709587,-1.000929 1.576861,-2.050522 0.867273,-1.049592 3.2782888,-4.00541 5.3578118,-6.568485 10.930796,-13.4725326 9.73594,-12.1409046 10.893916,-12.1409046 0.964334,0 1.010347,0.03321 0.641546,0.46302 -0.218513,0.254662 -1.405729,1.713177 -2.638259,3.2411456 -1.232529,1.527969 -3.160973,3.909219 -4.285429,5.291667 -1.124457,1.382448 -3.735928,4.62223 -5.80327,7.199517 -3.6531218,4.554227 -3.7866978,4.686267 -4.7509898,4.696353 -0.545703,0.0057 -0.992187,-0.0536 -0.992187,-0.131791 z m 4.149193,-1.1146 C 10.22179,25.40674 11.241793,24.150403 11.933171,23.306103 l 1.257051,-1.53509 v 2.791861 2.791861 H 10.92355 8.6568782 Z m 6.7104168,-0.661458 0.01169,-1.91823 0.507364,0.960161 c 0.846328,1.601638 1.948923,2.347131 3.471438,2.347131 0.723665,0 1.647546,-0.171575 2.053067,-0.381279 0.71831,-0.371452 1.910358,-1.731291 2.217066,-2.529138 0.08391,-0.218281 0.161967,0.466329 0.173456,1.521355 l 0.02089,1.918229 H 20.598554 16.36522 l 0.01169,-1.918229 z M 4.7295812,20.598411 c 0.0056,-5.405667 0.03435,-5.753966 0.411783,-4.988941 1.632398,3.308751 5.2839968,3.657888 7.2478678,0.692984 0.566337,-0.855013 0.80099,-1.056071 0.80099,-0.686314 0,0.414022 -6.4725938,8.739105 -8.0906438,10.406229 -0.325315,0.33518 -0.37521,-0.396254 -0.369997,-5.423958 z m 14.4930598,4.354201 c -1.049515,-0.783365 -1.534502,-1.965833 -1.534502,-3.741338 0,-3.047728 1.894988,-4.850798 3.97023,-3.777649 2.374134,1.227713 2.396198,6.432264 0.03245,7.654605 -1.049429,0.542681 -1.599954,0.512431 -2.468178,-0.135618 z m 2.636578,-0.839023 c 0.73269,-0.780069 1.108056,-2.524233 0.848601,-3.943085 -0.257889,-1.410284 -1.565906,-2.72077 -2.457798,-2.462437 -1.403065,0.406392 -2.261481,2.482509 -1.903222,4.603024 0.356779,2.111759 2.290075,3.103885 3.512419,1.802498 z m 70.17683,-3.902604 v -1.058333 h -3.70416 -3.70417 V 13.993277 8.8339024 h 1.05834 1.05833 v 4.2333326 4.233333 h 1.98437 1.98438 V 13.067235 8.8339024 h 1.05833 1.05834 v 4.2333326 4.233333 h 0.66145 c 0.64676,0 0.66146,0.0441 0.66146,1.984375 v 1.984375 h -1.05833 -1.05834 z M 71.223863,19.037051 C 68.5578,18.204543 67.269239,16.281633 67.49476,13.472129 c 0.157887,-1.966926 0.73824,-3.066533 2.126067,-4.0282968 1.13407,-0.7859128 3.159979,-1.0826108 4.688144,-0.6865898 0.879144,0.227829 0.930185,0.304322 1.007877,1.5104256 l 0.08183,1.270443 -0.784135,-0.558355 c -0.889931,-0.633686 -2.481961,-0.726696 -3.430368,-0.20041 -1.056563,0.586302 -1.634056,1.756488 -1.635963,3.314981 -0.0016,1.291081 0.08643,1.507129 0.943136,2.315104 0.819052,0.772465 1.125082,0.891137 2.298052,0.891137 1.025186,0 1.501597,-0.139439 1.965536,-0.575287 l 0.612365,-0.575287 v 1.243294 c 0,1.047471 -0.09376,1.278103 -0.595312,1.464298 -1.211808,0.449872 -2.477199,0.513876 -3.548129,0.179465 z M 30.388139,13.993277 V 8.8339024 h 1.058333 1.058333 v 3.1749996 c 0,1.74625 0.0893,3.17383 0.198438,3.172401 0.10914,-0.0014 1.318022,-1.430179 2.686402,-3.175 2.294659,-2.9259156 2.556764,-3.1724006 3.373437,-3.1724006 h 0.885473 v 5.1593746 5.159375 h -1.050652 -1.050655 l -0.07382,-3.431472 -0.07383,-3.431471 -2.724679,3.431471 c -2.388931,3.00863 -2.820924,3.431472 -3.505729,3.431472 h -0.78105 z m 11.321777,-2.91e-4 -0.07699,-5.1596576 0.992188,2.91e-4 0.992187,2.83e-4 v 1.9843746 1.984375 h 2.116667 2.116666 V 10.818277 8.8339024 h 1.058334 1.058333 v 5.1593746 5.159375 h -1.058333 -1.058334 v -2.39238 -2.39238 l -2.050521,0.07728 -2.05052,0.07728 -0.07645,2.315104 -0.07645,2.315105 H 42.6918 41.786899 l -0.07698,-5.159658 z m 18.840722,2.91e-4 V 8.8339024 h 2.778125 2.778125 v 0.7816608 c 0,0.7808978 -0.0019,0.7817368 -1.785938,0.8598958 l -1.785937,0.07823 -0.08136,1.124479 -0.08136,1.12448 h 1.867297 1.867297 v 0.926041 0.926042 H 64.254803 62.40272 v 1.322917 1.322916 h 1.852083 1.852084 v 0.926042 0.926042 h -2.778125 -2.778125 z m 17.991666,0.79375 v -4.365625 h -1.124479 c -1.073034,0 -1.124479,-0.03632 -1.124479,-0.7937498 V 8.8339024 h 3.373437 3.373438 v 0.7937498 c 0,0.7643518 -0.0441,0.7937498 -1.190625,0.7937498 h -1.190625 v 4.365625 4.365625 h -1.058334 -1.058333 z m 16.668745,-0.79375 V 8.8339024 h 2.91042 2.910411 v 0.7937498 0.7937498 h -1.852081 -1.85208 v 1.190625 1.190625 h 1.71979 1.719781 v 0.926041 0.926042 h -1.719781 -1.71979 v 1.322917 1.322916 h 1.85208 1.852081 v 0.926042 0.926042 h -2.910411 -2.91042 z m 7.408331,0 V 8.8339024 h 1.05833 1.05833 v 1.9950746 1.995075 l 2.18282,-0.07685 2.18281,-0.07685 0.0777,-1.918229 0.0777,-1.9182286 h 0.91445 0.91445 v 5.1593746 5.159375 l -0.99218,3.96e-4 -0.99219,3.97e-4 v -2.315498 -2.315507 h -2.11667 -2.11666 l -0.0765,2.315104 -0.0764,2.315104 h -1.04803 l -1.04803,1.2e-5 z m 11.90625,0.79375 v -4.365625 h -1.05834 c -0.99953,0 -1.05833,-0.0441 -1.05833,-0.7937498 V 8.8339024 h 3.30729 3.30729 v 0.7937498 c 0,0.7643518 -0.0441,0.7937498 -1.19062,0.7937498 h -1.19063 v 4.365625 4.365625 h -1.05833 -1.05833 z m 5.55625,-0.79375 V 8.8339024 h 2.36095 c 2.15019,0 2.43317,0.06077 3.17,0.6807728 0.46758,0.393443 0.9291,1.1265738 1.09347,1.7370128 0.60713,2.254722 -0.77767,3.929278 -3.25099,3.931225 l -1.25677,9.89e-4 v 1.984375 1.984375 h -1.05833 -1.05833 z m 4.07899,-0.797432 c 0.30414,-0.230135 0.50712,-0.705228 0.50712,-1.186943 0,-0.942581 -0.68868,-1.566906 -1.74184,-1.579086 -0.71384,-0.0083 -0.72761,0.02162 -0.72761,1.579086 0,1.557469 0.0138,1.58734 0.72761,1.579085 0.40018,-0.0046 0.95581,-0.181092 1.23472,-0.392142 z M 16.376916,18.456878 c -0.0096,-0.464241 3.842499,-5.50488 7.812944,-10.2234856 l 0.642029,-0.763008 v 5.7606426 5.760642 l -0.798765,-1.259521 c -1.881435,-2.966716 -5.480057,-2.810096 -7.128006,0.310225 -0.404736,0.766351 -0.519039,0.856049 -0.528202,0.414505 z m 35.706439,-4.662039 -5.29e-4,-5.0932286 2.232451,0.0851 c 1.983552,0.07561 2.308106,0.160756 2.911033,0.7636838 0.817668,0.8176678 0.954736,2.7731548 0.249039,3.5529398 -0.400537,0.44259 -0.384641,0.495101 0.235408,0.777614 1.647346,0.75058 1.614728,3.572701 -0.05267,4.55766 -0.565814,0.33418 -1.378217,0.44946 -3.167538,0.44946 h -2.406574 z m 4.445616,3.188229 c 0.174625,-0.174625 0.3175,-0.627062 0.3175,-1.005416 0,-0.950776 -0.461454,-1.322917 -1.640416,-1.322917 h -1.005417 v 1.322917 1.322916 h 1.005417 c 0.552979,0 1.148291,-0.142875 1.322916,-0.3175 z m -0.988023,-4.189725 c 0.580025,-0.31042 0.697371,-1.551344 0.194273,-2.054441 -0.174625,-0.174625 -0.650875,-0.3175 -1.058333,-0.3175 -0.71261,0 -0.740833,0.0504 -0.740833,1.322916 0,1.160562 0.06708,1.322917 0.54656,1.322917 0.300609,0 0.776859,-0.123252 1.058333,-0.273892 z M 8.4277232,16.846482 c -1.94541,-0.698182 -2.942579,-3.775711 -1.974285,-6.093166 0.566979,-1.3569706 1.109233,-1.8820596 2.144068,-2.0761956 1.071685,-0.20105 1.9988298,0.324533 2.7522758,1.5602196 0.651602,1.068659 0.703182,3.699351 0.09638,4.915713 -0.602149,1.207037 -2.0735538,2.032536 -3.0184388,1.693429 z M 10.386059,15.533868 C 11.653834,14.166629 11.591584,11.163308 10.268037,9.8397612 9.1580342,8.7297584 8.2776522,8.9129554 7.2683952,10.463949 c -0.477018,0.733067 -0.631784,2.846255 -0.290688,3.969073 0.544333,1.791827 2.255241,2.344425 3.4083518,1.100846 z m 5.979163,-6.3030906 v -2.778125 h 2.258268 c 2.448847,0 2.524949,0.0874 1.267117,1.455208 -0.267641,0.291042 -1.121062,1.332839 -1.896492,2.3151036 -0.77543,0.982266 -1.459152,1.785938 -1.519382,1.785938 -0.06023,0 -0.109511,-1.250157 -0.109511,-2.7781246 z m -3.836458,-0.06013 c -0.634718,-1.181176 -2.277704,-2.178443 -3.5988928,-2.184476 -1.142723,-0.0052 -2.499741,0.844549 -3.340123,2.091592 L 4.9881392,9.9704902 V 8.2115714 6.4526524 h 4.101042 4.1010408 v 1.852083 c 0,1.018646 -0.02976,1.8517616 -0.06615,1.8513676 -0.03638,-3.96e-4 -0.304271,-0.4438498 -0.595313,-0.9854606 z M 2.3744522,7.3231554 c -2.78216396,-1.370592 -2.33268496,-5.449206 0.711232,-6.45378905 0.512564,-0.169162 1.636729,-0.244305 2.536045,-0.169519 1.393194,0.115856 6.2674818,1.17573005 9.5008058,2.06587305 0.553449,0.152366 1.963469,0.445321 3.133378,0.651011 2.473549,0.434893 4.537285,0.152546 5.065341,-0.693006 0.173254,-0.277424 0.57783,-0.504407 0.899058,-0.504407 0.533641,0 0.560242,0.06829 0.308206,0.791287 -0.351783,1.009124 -1.553243,2.022007 -2.8137,2.37207 -2.153791,0.598166 -4.465235,0.336578 -10.517129,-1.190232 -6.8801398,-1.735766 -7.8903878,-1.845268 -8.6274578,-0.935142 -0.771617,0.952785 -0.564714,2.134223 0.489487,2.795025 0.537565,0.33696 0.853448,0.751306 0.859896,1.12793 0.01208,0.705379 -0.337716,0.737729 -1.545162,0.142899 z M 14.248556,7.1141104 c 0,-0.485069 0.141111,-0.661458 0.529166,-0.661458 0.388056,0 0.529167,0.176389 0.529167,0.661458 0,0.485069 -0.141111,0.661458 -0.529167,0.661458 -0.388055,0 -0.529166,-0.176389 -0.529166,-0.661458 z"
       id="path928" />
  </g>
</svg>
